<?xml version="1.0" encoding="UTF-8"?>
<svg width="120px" height="91px" viewBox="0 0 120 91" version="1.1" xmlns="http://www.w3.org/2000/svg" xmlns:xlink="http://www.w3.org/1999/xlink">
    <title>B8B46F82-61B1-48CF-89B8-06C23106421E</title>
    <g id="Page-1" stroke="none" stroke-width="1" fill="none" fill-rule="evenodd">
        <g id="1" transform="translate(-128.000000, -60.000000)" fill="#FFFFFF" fill-rule="nonzero">
            <g id="Logotype_-_Vertical_White_Cropped" transform="translate(128.000000, 60.000000)">
                <g id="Label-2" transform="translate(34.356846, 0.000000)">
                    <path d="M35.960166,14.8282158 L38.3103734,12.4780083 C31.178311,5.35166275 19.6200634,5.35475226 12.4918117,12.4849096 C5.36356007,19.6150669 5.36356007,31.1733149 12.4918117,38.3034722 C19.6200634,45.4336295 31.178311,45.436719 38.3103734,38.3103734 L39.4854772,37.1352697 L32.8033195,30.453112 C32.8392287,30.1540306 32.8575175,29.8530961 32.8580913,29.5518672 L32.8580913,27.0622407 L35.3477178,27.0622407 L35.3477178,23.7360996 L29.5369295,23.7360996 L29.5369295,27.1917012 L26.5493776,24.2041494 L26.5493776,24.2041494 L23.4721992,21.1319502 C23.1033098,20.7005979 22.9018398,20.1509734 22.9045643,19.5834025 C22.9045643,18.2084197 24.0192081,17.0937759 25.3941909,17.0937759 C26.7691737,17.0937759 27.8838174,18.2084197 27.8838174,19.5834025 L31.2049793,19.5834025 C31.2049793,16.3741927 28.6034007,13.7726141 25.3941909,13.7726141 C22.1849811,13.7726141 19.5834025,16.3741927 19.5834025,19.5834025 C19.5721668,20.9204722 20.0442902,22.2166013 20.9128631,23.233195 L20.9128631,23.233195 L21.0323651,23.3526971 L21.1070539,23.4423237 C18.8340115,25.0720505 17.6620066,27.8351727 18.0701451,30.6021483 C18.4782837,33.3691239 20.3981582,35.6761831 23.0449394,36.5802188 C25.6917206,37.4842544 28.6217844,36.833742 30.6373444,34.8946058 C30.9538573,34.5749069 31.2420722,34.2283825 31.4987552,33.8589212 L34.7253112,37.0804979 C28.4483912,42.0926684 19.331588,41.2435892 14.0881947,35.1584924 C8.84480129,29.0733955 9.35235898,19.9312174 15.2371201,14.4639362 C21.1218812,8.99665499 30.2766452,9.16198112 35.960166,14.8381743 L35.960166,14.8282158 Z M28.2970954,32.5095436 C27.1062386,33.6791786 25.3297531,34.0198744 23.7906758,33.3737882 C22.2515985,32.7277021 21.2506057,31.2210543 21.2514517,29.5518672 C21.2654924,28.0091395 22.1316329,26.600703 23.5020747,25.8921162 C23.7360996,26.1161826 23.9701245,26.3452282 24.2190871,26.5941909 L24.2190871,26.5941909 L29.0887967,31.4589212 C28.8809253,31.8480331 28.6138369,32.2024712 28.2970954,32.5095436 L28.2970954,32.5095436 Z" id="C_"></path>
                    <path d="M40.3319502,23.7360996 L40.3319502,27.0522822 L46.9145228,27.0522822 C46.1329574,37.1659885 38.4160214,45.371694 28.3692944,46.7721144 C18.3225674,48.1725348 8.65579474,42.3899568 5.13824665,32.8755069 C1.62069857,23.361057 5.2011079,12.680918 13.7426344,7.20915171 C22.2841609,1.73738545 33.4830332,2.94980533 40.6556017,10.1228216 L43.0008299,7.77759336 C34.59532,-0.639877502 21.4138422,-1.94643165 11.5194392,4.65714342 C1.62503633,11.2607185 -2.22576062,23.9346999 2.32256126,34.9264777 C6.87088314,45.9182556 18.5511842,52.1655757 30.2186837,49.8469843 C41.8861833,47.5283928 50.2904564,37.2898377 50.2904564,25.3941909 L50.2904564,23.7360996 L40.3319502,23.7360996 Z" id="G"></path>
                </g>
                <g id="Name" transform="translate(0.000000, 60.248963)">
                    <path d="M16.6058091,8.86804979 L16.6058091,15.8987552 C15.751045,16.9530213 14.656768,17.7878129 13.4141079,18.33361 C12.0945633,18.9044594 10.6691339,19.1895453 9.23153527,19.1701245 C7.55778431,19.2007425 5.90610375,18.7848146 4.44647303,17.9651452 C3.06973998,17.1820864 1.93727789,16.0323874 1.17510373,14.6439834 C-0.375132359,11.6968203 -0.375132359,8.17537885 1.17510373,5.22821577 C1.93139169,3.84430358 3.05925804,2.69919156 4.43153527,1.9219917 C5.92061974,1.08904724 7.60540026,0.66957127 9.31120332,0.707053942 C11.9017826,0.647570287 14.39773,1.68137325 16.1875519,3.55518672 L14.4896266,5.5966805 C13.8200466,4.92365709 13.0294425,4.38307308 12.1593361,4.0033195 C11.28768,3.65426677 10.3544914,3.48490406 9.41576763,3.50539419 C8.26327372,3.4792068 7.12488804,3.76294341 6.11950207,4.32697095 C5.18682735,4.86570934 4.42821126,5.66061459 3.93360996,6.61742739 C2.89587541,8.74872029 2.90507105,11.2407389 3.95850622,13.3643154 C4.47537718,14.3226574 5.2565305,15.1124518 6.20912863,15.639834 C7.21908468,16.1797726 8.35039722,16.4523161 9.49543568,16.4315353 C11.1235233,16.4899932 12.7035421,15.8738399 13.8622407,14.7286307 L13.8622407,11.4522822 L9.10207469,11.4522822 L9.10207469,8.89294606 L16.6058091,8.86804979 Z" id="Path"></path>
                    <path d="M27.9983402,8.39502075 C28.9900022,9.55604664 29.4995634,11.0526601 29.4224066,12.5775934 C29.4224066,12.8564315 29.3875519,13.3095436 29.3178423,13.9419087 L20.9477178,13.9419087 C21.0778087,14.7903348 21.5332337,15.5547344 22.2174274,16.073029 C22.929786,16.580055 23.7882422,16.8405641 24.6622407,16.8149378 C25.2449016,16.8257202 25.8248512,16.7329957 26.3751037,16.5410788 C26.8793271,16.3530336 27.3450353,16.0746211 27.7493776,15.7195021 L28.9493776,17.546888 C28.3135511,18.0637744 27.5991301,18.4756171 26.833195,18.766805 C26.0517859,19.0440672 25.2274147,19.1806195 24.3983402,19.1701245 C23.2553926,19.1918045 22.1258708,18.9209935 21.1170124,18.3834025 C20.1929127,17.8728014 19.4317629,17.1116516 18.9211618,16.1875519 C18.378178,15.2037465 18.1034317,14.0944584 18.1244813,12.9709544 C18.1102165,11.8892913 18.376096,10.822343 18.8962656,9.87385892 C19.395658,8.95595346 20.1359046,8.19160583 21.0373444,7.66307054 C21.9781088,7.1149514 23.0507601,6.83430588 24.1394191,6.85145228 C25.5882264,6.78486385 26.995127,7.34762409 27.9983402,8.39502075 L27.9983402,8.39502075 Z M22.0481328,9.92365145 C21.45997,10.4756677 21.0727312,11.2080922 20.9477178,12.0049793 L26.7286307,12.0049793 C26.7467493,11.2323675 26.464767,10.4827943 25.9419087,9.91369295 C25.4420253,9.42102766 24.7611441,9.15624053 24.059751,9.18174274 C23.319273,9.16429374 22.5999581,9.42958564 22.0481328,9.92365145 L22.0481328,9.92365145 Z" id="Shape"></path>
                    <path d="M39.0473029,7.39917012 L38.340249,9.80912863 C37.8609377,9.636916 37.3557769,9.54767092 36.846473,9.54522822 C36.1017546,9.51732956 35.3794004,9.80265948 34.8547718,10.3319502 C34.3238876,10.9145463 34.0493808,11.6860358 34.0929461,12.473029 L34.0929461,18.8315353 L31.1751037,18.8315353 L31.1751037,7.16514523 L33.1070539,7.16514523 L33.659751,8.89294606 C33.9555073,8.27177599 34.4284799,7.75202585 35.0190871,7.39917012 C35.6263082,7.05755318 36.3142442,6.88556917 37.0107884,6.90124481 C37.7219093,6.88239832 38.4251033,7.05432838 39.0473029,7.39917012 Z" id="Path"></path>
                    <path d="M41.9352697,18.453112 C41.0116854,17.9615895 40.2389495,17.2284369 39.6995851,16.3319502 C38.5650457,14.286243 38.5500339,11.8036762 39.659751,9.74439834 C40.1874762,8.8323615 40.962582,8.08832905 41.8954357,7.59834025 C42.846928,7.09803413 43.9076107,6.84141734 44.9825726,6.85145228 C46.5747095,6.81525452 48.1230397,7.37457105 49.3244813,8.41991701 L47.940249,10.3319502 C47.1873626,9.65698423 46.2022045,9.3000429 45.1917012,9.33609959 C44.2597175,9.30890743 43.3582062,9.66951194 42.7020747,10.3319502 C41.3908368,11.8639637 41.3908368,14.1227583 42.7020747,15.6547718 C43.3445809,16.3130636 44.2322915,16.6739216 45.1518672,16.6506224 C45.7050276,16.6616915 46.2549401,16.5635533 46.7701245,16.3618257 C47.2756434,16.1433997 47.7339226,15.8288612 48.1195021,15.4356846 L49.5585062,17.3477178 C48.9487183,17.9324522 48.2341672,18.3969948 47.4522822,18.7170124 C46.62131,19.0253346 45.7391631,19.1723591 44.853112,19.1502075 C43.8381632,19.1596249 42.8363572,18.9202856 41.9352697,18.453112 L41.9352697,18.453112 Z" id="Path"></path>
                    <path d="M60.3236515,8.0813278 C61.0777457,9.05825178 61.4527133,10.2751278 61.3792531,11.5070539 L61.3792531,18.8315353 L58.5311203,18.8315353 L58.5311203,11.7410788 C58.5681525,11.1297304 58.3921955,10.5244384 58.033195,10.0282158 C57.6559922,9.60515058 57.1050457,9.3792625 56.5394191,9.41576763 C55.7314976,9.38144395 54.9572357,9.74165209 54.4630705,10.3817427 C53.9468027,11.0859864 53.6836091,11.9439976 53.7161826,12.8165975 L53.7161826,18.8315353 L50.8680498,18.8315353 L50.8680498,0 L53.7161826,0 L53.7161826,6.97095436 C53.7161826,7.6879668 53.7161826,8.28049793 53.7161826,8.74854772 C54.4785701,7.51690212 55.8494563,6.79618589 57.2962656,6.86639004 C58.4359446,6.80047027 59.5457211,7.24584113 60.3236515,8.0813278 L60.3236515,8.0813278 Z" id="Path"></path>
                    <path d="M63.9585062,4.25228216 C63.3078806,3.57105578 63.3078806,2.49865376 63.9585062,1.81742739 C64.6973695,1.16260026 65.8088546,1.16260026 66.5477178,1.81742739 C66.8726654,2.14352355 67.0522071,2.58699153 67.0456432,3.0473029 C67.0523891,3.49596779 66.8719689,3.92717198 66.5477178,4.2373444 C66.2050725,4.56801973 65.7440803,4.74739413 65.2680498,4.73526971 C64.7834919,4.76252452 64.3093243,4.58764141 63.9585062,4.25228216 L63.9585062,4.25228216 Z M63.8141079,7.16514523 L66.6622407,7.16514523 L66.6622407,18.8315353 L63.8141079,18.8315353 L63.8141079,7.16514523 Z" id="Shape"></path>
                    <polygon id="Path" points="79.5585062 18.6721992 79.5585062 18.8315353 76.2622407 18.8315353 72.0746888 13.8522822 72.0746888 18.8315353 69.2116183 18.8315353 69.2116183 0 72.059751 0 72.059751 11.7958506 75.93361 7.16514523 79.1701245 7.16514523 79.1701245 7.29460581 74.5394191 12.8165975"></polygon>
                    <path d="M82.3070539,18.6871369 C81.9184416,18.5163075 81.5879789,18.2360197 81.3560166,17.8804979 C81.1431178,17.5478265 81.0323323,17.1600769 81.0373444,16.7651452 C81.0397601,16.2460478 81.1937884,15.738966 81.4804979,15.3062241 C81.8240927,14.8051594 82.2748031,14.3867641 82.8,14.0813278 C82.5176365,13.7711426 82.2781567,13.4244831 82.0879668,13.0506224 C81.934803,12.7407319 81.8531286,12.4004218 81.8489627,12.0547718 C81.84547,11.656047 81.9541717,11.2643756 82.1626556,10.9244813 C82.3777107,10.5719338 82.68621,10.2858395 83.0539419,10.0979253 C83.4700097,9.88641766 83.9316816,9.78040411 84.3983402,9.78921162 C84.8061534,9.78122255 85.2096831,9.87355562 85.573444,10.0580913 C85.8996217,10.224644 86.1735607,10.4779084 86.3651452,10.7900415 C86.5526688,11.0989389 86.6493112,11.4544446 86.6439834,11.8157676 C86.6518818,12.31188 86.4743184,12.7930767 86.1460581,13.1651452 C85.7193978,13.6207341 85.2257567,14.008595 84.6821577,14.3153527 L86.3950207,16.0680498 C86.5528266,15.7639879 86.6764044,15.4433536 86.7634855,15.1120332 C86.844974,14.8094509 86.8933901,14.4989199 86.9078838,14.1858921 L88.2273859,14.1858921 C88.1934148,15.206746 87.8762015,16.1980374 87.3112033,17.0489627 L88.8547718,18.6970954 L87.520332,18.9958506 L86.5244813,17.9253112 C86.1679003,18.2531037 85.7567231,18.5159875 85.3095436,18.7020747 C84.8373687,18.9024978 84.3286748,19.0025409 83.8157676,18.9958506 C83.2959357,19.0089555 82.7799575,18.9033758 82.3070539,18.6871369 L82.3070539,18.6871369 Z M85.5983402,16.9593361 L83.6514523,14.9975104 C83.3066793,15.1730053 83.0094406,15.4292456 82.7850622,15.7443983 C82.6054258,16.0017968 82.5066112,16.3069087 82.501217,16.6207469 C82.4990015,16.9212488 82.6325755,17.2066947 82.8647303,17.3975104 C83.1442565,17.6266272 83.4997649,17.7421674 83.8605809,17.7211618 C84.5188958,17.7120842 85.1456004,17.4373397 85.5983402,16.9593361 L85.5983402,16.9593361 Z M84.9410788,12.6622407 C85.1718847,12.4601736 85.3028482,12.1673248 85.2995851,11.8605809 C85.3008796,11.6346857 85.2025022,11.419713 85.0307054,11.273029 C84.835188,11.0998867 84.5794799,11.0104783 84.3186722,11.0240664 C84.0211948,11.0093203 83.7303542,11.1152437 83.5120332,11.3178423 C83.3188171,11.5097975 83.2126515,11.7725123 83.2182573,12.0448133 C83.2202238,12.266872 83.2748303,12.4852981 83.3775934,12.6821577 C83.5127113,12.9381277 83.6800469,13.1757443 83.8755187,13.3892116 C84.2580998,13.1897047 84.6157663,12.9456892 84.9410788,12.6622407 L84.9410788,12.6622407 Z" id="Shape"></path>
                    <path d="M94.3020747,17.9253112 C92.9391375,17.128123 91.822635,15.9702686 91.0755187,14.5792531 C90.3025944,13.1414135 89.9068612,11.5310708 89.9253112,9.89875519 C89.9007619,8.2474995 90.3130197,6.61908107 91.120332,5.17842324 C91.8921205,3.8041441 93.0273806,2.66888402 94.4016598,1.89709544 C95.8561114,1.08868619 97.4980581,0.678199508 99.1618257,0.707053942 C100.392266,0.687381521 101.615354,0.900239464 102.766805,1.33443983 C103.909666,1.80267224 104.956254,2.47789022 105.853942,3.32614108 L104.260581,5.41742739 C102.900233,4.14239282 101.095654,3.44914856 99.2315353,3.48547718 C98.1142328,3.46347055 97.0122046,3.74758719 96.0448133,4.30705394 C95.1260749,4.85199021 94.3750062,5.63923424 93.8738589,6.58257261 C93.3379019,7.60279748 93.0673507,8.74150982 93.0871369,9.89377593 C93.0734251,11.0323336 93.3329652,12.1575764 93.8439834,13.1751037 C94.3260021,14.1337148 95.0657263,14.9389623 95.980083,15.5004149 C96.9267512,16.0776702 98.018388,16.3730339 99.126971,16.3518672 C100.150255,16.3682114 101.163161,16.1448264 102.084647,15.6995851 C102.958655,15.2607055 103.718855,14.6249328 104.305394,13.8423237 L106.242324,15.8340249 C105.411623,16.8935504 104.346323,17.7457908 103.13029,18.3236515 C101.862104,18.9023997 100.480976,19.1915519 99.0871369,19.1701245 C97.4083593,19.2000175 95.7534628,18.7695033 94.3020747,17.9253112 L94.3020747,17.9253112 Z" id="Path"></path>
                    <path d="M109.99668,18.3834025 C109.062056,17.8766461 108.290294,17.1152435 107.770954,16.1875519 C106.708713,14.1976144 106.708713,11.8090246 107.770954,9.81908714 C108.293608,8.89773579 109.064891,8.14198229 109.99668,7.63817427 C110.987361,7.10467922 112.098179,6.8338314 113.223237,6.85145228 C114.354571,6.83439609 115.471686,7.10510801 116.46971,7.63817427 C117.405331,8.1402614 118.180259,8.89620509 118.705394,9.81908714 C119.767636,11.8090246 119.767636,14.1976144 118.705394,16.1875519 C118.183804,17.116952 117.408336,17.8786035 116.46971,18.3834025 C115.471686,18.9164688 114.354571,19.1871807 113.223237,19.1701245 C112.098179,19.1877454 110.987361,18.9168975 109.99668,18.3834025 Z M115.673029,15.6248963 C116.907885,14.0915684 116.907885,11.9051121 115.673029,10.3717842 C115.027884,9.72105881 114.149523,9.35501234 113.233195,9.35501234 C112.316867,9.35501234 111.438507,9.72105881 110.793361,10.3717842 C109.538478,11.8904987 109.538478,14.0862648 110.793361,15.6049793 C111.438507,16.2557047 112.316867,16.6217511 113.233195,16.6217511 C114.149523,16.6217511 115.027884,16.2557047 115.673029,15.6049793 L115.673029,15.6248963 Z" id="Shape"></path>
                </g>
                <g id="Descriptor" transform="translate(0.000000, 84.647303)">
                    <path d="M3.72448133,4.02821577 C3.72448133,4.84481328 3.08713693,5.37759336 2.17095436,5.37759336 L0,5.37759336 L0,0.44813278 L2.03651452,0.44813278 C2.93278008,0.44813278 3.53029046,0.946058091 3.53029046,1.74771784 C3.54105903,2.18549682 3.31444323,2.59492872 2.93775934,2.81825726 C3.42696998,3.01767942 3.74068735,3.50016878 3.72448133,4.02821577 L3.72448133,4.02821577 Z M1.05560166,2.44979253 L1.82738589,2.44979253 C1.99795293,2.47892467 2.17249338,2.42866524 2.30144769,2.31328507 C2.43040199,2.1979049 2.49968584,2.03000575 2.48962656,1.85726141 C2.48962656,1.50871369 2.23568465,1.28962656 1.8373444,1.28962656 L1.05560166,1.28962656 L1.05560166,2.44979253 Z M2.64896266,3.90373444 C2.65365451,3.73065308 2.58486536,3.56367306 2.45962,3.44412068 C2.33437465,3.32456829 2.16437738,3.26361582 1.99170124,3.27634855 L1.05560166,3.27634855 L1.05560166,4.53609959 L1.96182573,4.53609959 C2.13991191,4.55642073 2.31803916,4.49834895 2.44992974,4.37697139 C2.58182032,4.25559382 2.65445481,4.08289212 2.64896266,3.90373444 L2.64896266,3.90373444 Z" id="Shape"></path>
                    <path d="M10.9543568,5.3526971 L10.9543568,5.37759336 L9.74439834,5.37759336 L8.71369295,3.61493776 L8.1560166,3.61493776 L8.1560166,5.37759336 L7.08547718,5.37759336 L7.08547718,0.44813278 L9.07717842,0.44813278 C9.52208736,0.409169149 9.96300588,0.558128801 10.2931292,0.858928887 C10.6232526,1.15972897 10.8124667,1.58493027 10.8149378,2.03153527 C10.8251456,2.70002981 10.3899136,3.29389767 9.74937759,3.48547718 L10.9543568,5.3526971 Z M8.9626556,2.75352697 C9.16204694,2.77959167 9.3629163,2.71764943 9.51299998,2.58381685 C9.66308367,2.44998426 9.7475414,2.2574947 9.74439834,2.05643154 C9.74552445,1.85522111 9.6608695,1.66306152 9.51163992,1.52808955 C9.36241034,1.39311757 9.16274307,1.32811949 8.9626556,1.34937759 L8.1659751,1.34937759 L8.1659751,2.75352697 L8.9626556,2.75352697 Z" id="Shape"></path>
                    <path d="M13.8821577,2.91286307 C13.8604986,2.21846827 14.1299701,1.54660824 14.6254569,1.05963174 C15.1209436,0.572655243 15.7973709,0.314862852 16.4912863,0.348547718 C17.9075186,0.348547718 19.0556017,1.49663081 19.0556017,2.91286307 C19.0556017,4.32909533 17.9075186,5.47717842 16.4912863,5.47717842 C15.7973709,5.51086329 15.1209436,5.2530709 14.6254569,4.7660944 C14.1299701,4.2791179 13.8604986,3.60725787 13.8821577,2.91286307 Z M18,2.91286307 C17.9432329,2.10392814 17.2514352,1.48802892 16.4413646,1.52522848 C15.631294,1.56242803 14.9988547,2.23913802 15.016465,3.04987109 C15.0340752,3.86060416 15.6953022,4.50921394 16.5062241,4.51120782 C16.9211987,4.51222135 17.3178953,4.34057083 17.6012428,4.03738905 C17.8845903,3.73420726 18.0290496,3.32682092 18,2.91286307 Z" id="Shape"></path>
                    <polygon id="Path" points="26.4149378 5.34771784 26.4149378 5.37759336 25.2 5.37759336 23.566805 3.24647303 23.566805 5.37759336 22.4962656 5.37759336 22.4962656 0.44813278 23.566805 0.44813278 23.566805 2.58921162 25.0605809 0.44813278 26.2307054 0.44813278 26.2307054 0.497925311 24.5178423 2.89792531"></polygon>
                    <polygon id="Path" points="32.793361 4.44647303 32.793361 5.37759336 29.5518672 5.37759336 29.5518672 0.44813278 32.7286307 0.44813278 32.7286307 1.37925311 30.6224066 1.37925311 30.6224066 2.43485477 32.459751 2.43485477 32.459751 3.33112033 30.6224066 3.33112033 30.6224066 4.44647303"></polygon>
                    <path d="M40.0580913,5.3526971 L40.0580913,5.37759336 L38.8381743,5.37759336 L37.8423237,3.61493776 L37.2647303,3.61493776 L37.2647303,5.37759336 L36.1892116,5.37759336 L36.1892116,0.44813278 L38.1809129,0.44813278 C38.6258218,0.409169149 39.0667403,0.558128801 39.3968637,0.858928887 C39.7269871,1.15972897 39.9162011,1.58493027 39.9186722,2.03153527 C39.9269771,2.70419034 39.4846369,3.29941302 38.8381743,3.48547718 L40.0580913,5.3526971 Z M38.06639,2.75352697 C38.2657814,2.77959167 38.4666507,2.71764943 38.6167344,2.58381685 C38.7668181,2.44998426 38.8512758,2.2574947 38.8481328,2.05643154 C38.8488424,1.8580823 38.7662048,1.66855605 38.6203835,1.53409753 C38.4745623,1.399639 38.2789687,1.33261431 38.0813278,1.34937759 L37.2846473,1.34937759 L37.2846473,2.75352697 L38.06639,2.75352697 Z" id="Shape"></path>
                    <path d="M47.8008299,5.3526971 L47.8008299,5.37759336 L46.6954357,5.37759336 L46.3518672,4.60082988 L44.2804979,4.60082988 L43.9419087,5.37759336 L42.8215768,5.37759336 L42.8215768,5.3526971 L45.1618257,0.428215768 L45.4804979,0.428215768 L47.8008299,5.3526971 Z M44.9676349,2.98755187 L44.5991701,3.80912863 L46.033195,3.80912863 L45.6647303,2.98755187 C45.5502075,2.70871369 45.4356846,2.45477178 45.3161826,2.09626556 C45.2158056,2.39930208 45.0994603,2.69681363 44.9676349,2.98755187 L44.9676349,2.98755187 Z" id="Shape"></path>
                    <path d="M55.1253112,2.54439834 L55.1253112,4.60082988 C54.592588,5.18257096 53.8323789,5.50265903 53.0439834,5.47717842 C52.1278417,5.47006283 51.285088,4.97473196 50.8331795,4.17777217 C50.381271,3.38081237 50.3888633,2.40330082 50.8530965,1.6134567 C51.3173297,0.823612567 52.1676757,0.341431982 53.0838174,0.348547718 C53.8018234,0.336513259 54.4951219,0.610608038 55.0107884,1.11037344 L54.4580913,1.82738589 C54.1072427,1.47789645 53.6286695,1.28718682 53.13361,1.29958506 C52.2398712,1.29958506 51.5153527,2.02410352 51.5153527,2.91784232 C51.5153527,3.81158113 52.2398712,4.53609959 53.13361,4.53609959 C53.5193069,4.55048602 53.8962466,4.41891272 54.1892116,4.16763485 L54.1892116,3.39585062 L52.9941909,3.39585062 L52.9941909,2.54439834 L55.1253112,2.54439834 Z" id="Path"></path>
                    <polygon id="Path" points="61.8074689 4.44647303 61.8074689 5.37759336 58.5659751 5.37759336 58.5659751 0.44813278 61.7427386 0.44813278 61.7427386 1.37925311 59.6365145 1.37925311 59.6365145 2.43485477 61.4788382 2.43485477 61.4788382 3.33112033 59.6365145 3.33112033 59.6365145 4.44647303"></polygon>
                    <path d="M69.0124481,4.86970954 L69.5103734,4.04813278 C69.8856078,4.36439011 70.3590914,4.54040631 70.8497925,4.54605809 C71.2829876,4.54605809 71.6414938,4.36680498 71.6414938,4.04813278 C71.6414938,3.72946058 71.193361,3.49543568 70.6456432,3.32116183 C69.7593361,3.0473029 69.1917012,2.55435685 69.1917012,1.80248963 C69.1917012,0.886307054 69.9784232,0.373406756 70.9294606,0.373406756 C71.5163258,0.370485173 72.0905364,0.543962678 72.5775934,0.871369295 L72.1294606,1.66307054 C71.7889414,1.43392132 71.3896144,1.30772705 70.9792531,1.29958506 C70.5809129,1.29958506 70.2771784,1.45892116 70.2771784,1.74771784 C70.2771784,2.03651452 70.740249,2.28049793 71.193361,2.42987552 C72.0846473,2.71369295 72.6871369,3.15684647 72.6871369,3.98838174 C72.6871369,4.92946058 71.8954357,5.48215768 70.8647303,5.48215768 C70.1979013,5.4800717 69.549086,5.26554407 69.0124481,4.86970954 L69.0124481,4.86970954 Z" id="Path"></path>
                    <polygon id="Path" points="79.2697095 4.44647303 79.2697095 5.37759336 76.0232365 5.37759336 76.0232365 0.44813278 79.2049793 0.44813278 79.2049793 1.37925311 77.0937759 1.37925311 77.0937759 2.43485477 78.9360996 2.43485477 78.9360996 3.33112033 77.0937759 3.33112033 77.0937759 4.44647303"></polygon>
                    <path d="M86.5344398,5.3526971 L86.5344398,5.37759336 L85.3244813,5.37759336 L84.2937759,3.61493776 L83.7360996,3.61493776 L83.7360996,5.37759336 L82.6556017,5.37759336 L82.6556017,0.44813278 L84.6473029,0.44813278 C85.0922118,0.409169149 85.5331304,0.558128801 85.8632537,0.858928887 C86.1933771,1.15972897 86.3825912,1.58493027 86.3850622,2.03153527 C86.3905585,2.69042165 85.9636929,3.27508592 85.3344398,3.47053942 L86.5344398,5.3526971 Z M84.5427386,2.75352697 C84.7421299,2.77959167 84.9429993,2.71764943 85.093083,2.58381685 C85.2431667,2.44998426 85.3276244,2.2574947 85.3244813,2.05643154 C85.325191,1.8580823 85.2425533,1.66855605 85.0967321,1.53409753 C84.9509109,1.399639 84.7553172,1.33261431 84.5576763,1.34937759 L83.7609959,1.34937759 L83.7609959,2.75352697 L84.5427386,2.75352697 Z" id="Shape"></path>
                    <path d="M94.1078838,0.44813278 L94.1078838,0.44813278 L91.7626556,5.38257261 L91.4439834,5.38257261 L89.0838174,0.497925311 L89.0838174,0.497925311 L90.2639004,0.497925311 L91.3195021,2.82323651 C91.4290456,3.07219917 91.5136929,3.28630705 91.593361,3.5253112 C91.6829876,3.27634855 91.7825726,3.02738589 91.8771784,2.81825726 L92.9278008,0.497925311 L94.1078838,0.44813278 Z" id="Path"></path>
                    <polygon id="Path" points="97.2248963 0.44813278 98.2954357 0.44813278 98.2954357 5.37759336 97.2248963 5.37759336"></polygon>
                    <path d="M101.691286,2.91286307 C101.669901,2.22118422 101.937367,1.55181193 102.429517,1.06532951 C102.921667,0.578847085 103.594092,0.319152822 104.285477,0.348547718 C104.97047,0.330332329 105.636572,0.574332391 106.147718,1.03070539 L105.619917,1.78257261 C105.262477,1.46617019 104.79743,1.29868192 104.320332,1.31452282 C103.484727,1.36770543 102.830745,2.05491693 102.819008,2.89213059 C102.807272,3.72934424 103.441733,4.43461803 104.275519,4.51120332 C104.794708,4.52822259 105.292029,4.3016655 105.619917,3.89875519 L106.262241,4.60580913 C105.757126,5.17274331 105.029727,5.49098042 104.270539,5.47717842 C103.581694,5.50231754 102.913255,5.24073902 102.42443,4.75474508 C101.935605,4.26875113 101.670149,3.60184287 101.691286,2.91286307 L101.691286,2.91286307 Z" id="Path"></path>
                    <polygon id="Path" points="112.73527 4.44647303 112.73527 5.37759336 109.493776 5.37759336 109.493776 0.44813278 112.670539 0.44813278 112.670539 1.37925311 110.564315 1.37925311 110.564315 2.43485477 112.40166 2.43485477 112.40166 3.33112033 110.564315 3.33112033 110.564315 4.44647303"></polygon>
                    <path d="M115.817427,4.86970954 L116.315353,4.04813278 C116.692114,4.36510872 117.167411,4.54114438 117.659751,4.54605809 C118.092946,4.54605809 118.446473,4.36680498 118.446473,4.04813278 C118.446473,3.72946058 117.99834,3.49543568 117.450622,3.32116183 C116.569295,3.0473029 115.99668,2.55435685 115.99668,1.80248963 C115.99668,0.886307054 116.783402,0.373404763 117.73444,0.373404763 C118.322867,0.370406661 118.898691,0.543847773 119.387552,0.871369295 L118.939419,1.66307054 C118.597484,1.43300809 118.196296,1.30677242 117.784232,1.29958506 C117.385892,1.29958506 117.082158,1.45892116 117.082158,1.74771784 C117.082158,2.03651452 117.545228,2.28049793 118.00332,2.42987552 C118.894606,2.71369295 119.497095,3.15684647 119.497095,3.98838174 C119.497095,4.92946058 118.705394,5.48215957 117.679668,5.48215957 C117.009321,5.48289559 116.35648,5.26819135 115.817427,4.86970954 L115.817427,4.86970954 Z" id="Path"></path>
                </g>
            </g>
        </g>
    </g>
</svg>